<svg width="290" height="267" viewBox="0 0 290 267" fill="none" xmlns="http://www.w3.org/2000/svg">
    <path d="M236 162c29.823-29.823 29.823-78.177 0-108-29.823-29.823-78.177-29.823-108 0-29.823 29.823-29.823 78.177 0 108 29.823 29.823 78.177 29.823 108 0z" fill="#7E4DFE"/>
    <path d="M203.881 158.61l-6.774 30.472-46.177-31.691-11.462 16.924s30.214 40.879 62.397 40.879c16.9 0 20.205-38.746 20.205-38.746l-18.189-17.838z" fill="#FFC727"/>
    <path d="M196.146 193.418c-12.424 3.868-35.442-13.923-45.075-28.971-.657-1.032.21-12.447.609-26.37.187-8.439.234-17.838-.375-26.417-.117-1.782 6.094 1.055 6.094 1.055l11.298 1.898 37.364 6.399s-4.032 18.354-2.907 33.309c.087 1.189.291 2.367.61 3.516v.562c1.664 6.634 4.477 31.316-7.618 35.019z" fill="#EB9481"/>
    <path d="M203.764 158.024v.586a34.372 34.372 0 01-5.509.68c-36.332 1.711-44.044-44.091-44.044-44.091l14.369-.375 37.364 6.376s-4.032 18.377-2.907 33.332c.123 1.185.366 2.356.727 3.492z" fill="#263238"/>
    <path d="M146.64 43.285c-6.633 18.87 1.102 74.539 14.182 87.455 18.963 18.752 51.169 21.776 67.366-1.289 15.682-22.362 4.29-94.745-10.431-106.582-21.682-17.44-61.295-7.477-71.117 20.416z" fill="#EB9481"/>
    <path d="M200.224 81.891c0-.14-.258.21-.234.352.609 3.75.703 8.133-2.532 9.82v.212c4.126-1.149 3.962-6.985 2.766-10.384z" fill="#263238"/>
    <path d="M196.357 78.398c-6.095.352-4.946 12.517.703 12.19 5.649-.329 4.407-12.494-.703-12.19zm25.737 2.016c0-.164.328.14.328.305.234 3.774 1.148 8.063 4.688 9v.212c-4.243-.188-5.391-5.907-5.016-9.517z" fill="#263238"/>
    <path d="M225.094 76.148c6.024-1.031 7.642 11.087 2.063 12.048-5.579.961-7.196-11.18-2.063-12.048zm-34.082-2.86c1.618-.585 3.024-1.382 4.571-2.11a8.084 8.084 0 004.219-3.046 2.578 2.578 0 00-.703-3.07 6.423 6.423 0 00-6.493 0 9.377 9.377 0 00-5.016 4.57 2.763 2.763 0 003.422 3.657zm38.325-3.703a49.399 49.399 0 01-4.946-.797 8.134 8.134 0 01-4.899-1.781 2.597 2.597 0 01-.164-3.165 6.42 6.42 0 016.258-1.781 9.235 9.235 0 016.048 3.024 2.762 2.762 0 01.312 2.995 2.766 2.766 0 01-2.609 1.505zm-29.277 47.583c.985.797 1.993 1.922 3.375 1.922 1.4-.163 2.75-.618 3.962-1.336a.133.133 0 01.038-.029.114.114 0 01.047-.013.135.135 0 01.049.006.13.13 0 01.071.063.114.114 0 01.013.047.13.13 0 01-.006.048.127.127 0 01-.025.042 5.084 5.084 0 01-4.688 2.508 4.02 4.02 0 01-2.102-1.026 4.017 4.017 0 01-1.179-2.021c.023-.211.304-.328.445-.211z" fill="#263238"/>
    <path d="M202.357 107.136c3.844 3.117 16.69 3.117 16.736 2.696l-1.054-9.025c1.125.445 6.75 2.344 6.516.844-1.922-12.47-4.079-26.347-8.649-38.371a.353.353 0 00-.68.164c1.383 12.071 4.875 23.815 6.469 35.91a22.85 22.85 0 00-6.235-1.266c-.398.164 1.5 8.462 1.5 9.775a39.503 39.503 0 01-13.829-1.852c-1.477-.469-1.805.304-.774 1.125zm-48.942-18.893c4.688-1.195 9.235-16.783 9.376-31.925 0-9.728 3.984-22.01 14.837-25.667 7.22-2.344 19.783 3.516 26.956 1.758 7.173-1.758 8.509-5.86 12.751-5.743 4.243.117 8.978 10.548 8.978 10.548s-7.571-32.956-49.951-22.361c-44.536 11.18-35.675 49.411-31.386 61.67 3.329 9.47 8.439 11.72 8.439 11.72z" fill="#263238"/>
    <path d="M156.673 88.923S144.554 70.78 136.35 75.046c-8.204 4.267.61 30.473 10.056 34.153a9.667 9.667 0 0010.871-1.713 9.657 9.657 0 002.208-3.186l-2.812-15.377z" fill="#EB9481"/>
    <path d="M138.952 82.547a.14.14 0 00-.061.206.14.14 0 00.061.052c6.634 2.86 10.009 9.142 12.329 15.611-1.945-2.508-4.688-3.938-7.969-1.64-.188 0 0 .398.164.351a6 6 0 016.516 2.227 30.934 30.934 0 013.024 5.368c.281.609 1.383.328 1.172-.375a.33.33 0 010-.165c.141-8.508-6.118-20.556-15.236-21.635z" fill="#263238"/>
    <path d="M149.377 165.966c-13.309 6.006-46.514 18.521-72.87 20.533-26.354 2.012-48.586-1.811-56.407-3.974-3.326 3.835-7.082 14.003 4.503 23.998m33.593 4.484s-6.552 2.299-17.47 3.659c-22.96 2.86-29.356.402-37.46.016-2.402 4.475-3.832 15.222 9.666 22.417m81.705-21.608C81.665 227.997 72.195 230.4 62.2 235.006c-18.465 8.508-31.603 6.852-39.494 8.744-1.062 4.968.556 15.688 15.521 18.829M144.055 184.5c2.496 3.333 10.682 10.6 23.461 13m40.932-38.5c25.457 0 7.188 18.4 0 26-7.188 7.6-10.982 10.5-11.98 11 6.322-.5 20.865-4.3 28.452-15.5 7.588-11.2 9.152-10.333 8.985-8.5" stroke="#FDE565" stroke-width="3" stroke-linecap="round"/>
    <path d="M200.467 203.5c0 4.349-3.727 8-8.484 8-4.756 0-8.483-3.651-8.483-8s3.727-8 8.483-8c4.757 0 8.484 3.651 8.484 8z" stroke="#FDE565" stroke-width="3"/>
</svg>
