<svg width="184" height="267" viewBox="0 0 184 267" fill="none" xmlns="http://www.w3.org/2000/svg">
    <path d="M84.213 240.453C37.71 240.453.011 202.754.011 156.25c0-46.503 37.699-84.202 84.203-84.202 46.503 0 84.202 37.699 84.202 84.202 0 46.504-37.699 84.203-84.203 84.203z" fill="#7E4DFE"/>
    <path d="M15.565 244.5h7.18c.745-9.168-12.945-47.204-14.535-40.148-.925 5.322 18.27 34.756 18.585 40.148H148.44c1.416-13.789-24.25-60.497-24.25-60.497 7.032 11.404 29.244 51.602 30.262 60.497h11.479c1.193-8.249-21.243-46.384-21.243-46.384 3.155 5.54 24.473 39.974 25.392 46.384h13.069c.497-13.789-23.703-55.95-34.709-72.398-8.821-13.193 2.112-20.87 1.888-46.561-.224-34.188-23.678-47.207-27.579-50.884C69.704 25.512 21.552 71.13 16.385 103.602c-4.97 31.753 4.149 35.952-10.61 64.798-11.155 21.541 9.79 76.1 9.79 76.1z" fill="#80483A"/>
    <path d="M139.048 238.192s-.248.149-.348.248c-17.64 12.025-52.474 33.169-71.108 26.461-14.336-5.168-22.734-19.877-23.703-24.622 7.453-6.709 18.261-12.821 23.032-16.001 27.504-18.286 52.275-7.329 72.127 13.914z" fill="#FB0747"/>
    <path d="M112.488 227.781c-1.242 4.075-22.784 29.592-41.617 27.455-6.137-.721-3.751-34.387-3.751-34.387l-.398-2.484-5.466-35.356 42.66-23.529 6.162-3.08s.845 9.764 1.789 21.938l.149 1.74c0 .695.149 1.341.174 1.987.174 1.814.323 3.677.447 5.516 0 1.416.199 2.783.248 4.273.05 1.491.15 2.932.224 4.423a231.505 231.505 0 01-.621 31.504z" fill="#EB9481"/>
    <path d="M111.867 178.239a71.833 71.833 0 01-45.145 40.026l-5.466-35.355 42.66-23.529 6.162-3.081s.894 9.839 1.789 21.939z" fill="#263238"/>
    <path d="M17.552 124.125c-9.938 62.114 26.163 74.91 39.555 77.022 12.124 1.913 53.716 6.907 69.916-53.766 16.199-60.674-9.516-84.824-37.045-90.687-27.53-5.864-62.587 5.44-72.426 67.431z" fill="#EB9481"/>
    <path d="M121.954 151.753c-15.528-1.863-16.1-50.113-16.1-56.051-.174 3.751-1.267 23.504-2.857 24.174a15.526 15.526 0 01-4.795-1.341 48.322 48.322 0 000-7.106c0-1.093-.621 2.335-1.566 6.559-.87-.323-1.788-.696-2.807-1.043a56.795 56.795 0 00-.249-15.131c-.298-1.889-1.49 6.459-3.876 13.615a190.015 190.015 0 00-40.2-10.559c-3.851-.473-7.23-.696-10.212-.796.472-5.838 1.665-11.975 1.118-10.683A57.148 57.148 0 0037.081 104h-4.447c.273-8.249 5.267-21.044 3.801-19.156a58.288 58.288 0 00-9.64 19.578c-5.69.621-7.454 1.59-7.454.125 0-2.634 4.97-25.368 24.374-40.772 20.995-16.697 60.226-18.088 79.78 11.975 0 0 17.044 13.268 18.311 32.474 1.267 19.205-10.957 44.573-19.852 43.529z" fill="#80483A"/>
    <path d="M43.442 160.251a17.546 17.546 0 005.789 6.708 8.025 8.025 0 004.646 1.242c3.578-.223 4.298-3.304 4.199-6.112a19.586 19.586 0 00-.696-4.373 22.606 22.606 0 01-13.938 2.535z" fill="#fff"/>
    <path d="M30.497 116.522c1.466 0 2.832-.348 4.298-.522a7.027 7.027 0 004.274-1.366 2.236 2.236 0 00.248-2.733A5.54 5.54 0 0034 110.137a8.1 8.1 0 00-5.342 2.484 2.489 2.489 0 00-.211 2.484 2.484 2.484 0 002.05 1.417zm40.25 5.118c-1.441-.298-2.733-.819-4.124-1.242a7.156 7.156 0 01-4-2.112 2.235 2.235 0 01.248-2.708 5.545 5.545 0 015.54-.82 8.151 8.151 0 014.846 3.329 2.486 2.486 0 01-2.51 3.553zm-9.715 15.057c0-.149.323.248.299.422-.622 4.224-.597 9.168 3.08 11.007.125 0 0 .273 0 .248-4.67-1.192-4.62-7.776-3.379-11.677z" fill="#263238"/>
    <path d="M65.33 132.672c6.883.248 5.89 14.013-.496 13.789-6.386-.223-5.292-13.988.497-13.789z" fill="#263238"/>
    <path d="M67.99 133.517c1.142.844 2.21 2.31 3.651 2.484 1.442.174 3.032-1.068 4.224-2.36 0-.149.249 0 .224.174-.15 2.633-1.342 5.267-4.199 5.466-2.857.199-4.298-2.311-4.77-4.969-.075-.373.397-1.044.87-.795zm-30.636-.696c0-.149-.347.199-.347.373 0 4.273-1.02 9.143-4.97 10.311v.223c4.77-.273 5.889-6.832 5.317-10.907z" fill="#263238"/>
    <path d="M33.95 128.125c-6.832-.969-8.273 12.771-1.937 13.665 6.335.895 7.553-12.845 1.938-13.665z" fill="#263238"/>
    <path d="M30.895 128.746c-1.168.597-2.485 1.814-3.678 1.764-1.192-.049-2.484-1.664-3.28-3.18 0-.149-.223 0-.248.124-.323 2.609.249 5.442 2.709 6.212 2.46.77 4.174-1.392 4.969-3.926.273-.472-.025-1.192-.472-.994zm28.572 40.499c-1.043.994-2.087 2.335-3.652 2.484a11.495 11.495 0 01-4.572-1.217.145.145 0 00-.092-.003.15.15 0 00-.082.227 5.69 5.69 0 005.342 2.484 4.543 4.543 0 003.478-3.677c.075-.323-.248-.422-.422-.298zm-16.497-16.87s-1.417 6.286-1.665 9.267c0 .298.67.497 1.69.621h.124a14.313 14.313 0 0014.311-4.174c.223-.273 0-.621-.423-.447a21.46 21.46 0 01-13.342 2.633c-.149-.844 2.783-10.683 2.31-10.758-2.35.018-4.69.343-6.956.969 2.485-13.193 7.23-25.839 9.59-39.008a.42.42 0 00-.279-.434.424.424 0 00-.49.161c-5.815 12.945-9.094 28.051-12.1 41.592-.398 1.714 5.987-.025 7.23-.422z" fill="#263238"/>
    <path d="M116.414 150.586s15.056-18.585 23.578-13.069-3.776 33.119-14.46 36.25a10.636 10.636 0 01-13.789-6.709l4.671-16.472z" fill="#EB9481"/>
    <path d="M136.265 145.343a.152.152 0 01.09.137.146.146 0 01-.025.081.14.14 0 01-.065.055c-7.453 2.485-11.851 8.945-14.907 15.778 2.36-2.485 5.416-3.827 8.845-.994a.228.228 0 11-.224.397 6.511 6.511 0 00-7.453 1.764 30.57 30.57 0 00-3.827 5.541c-.397.621-1.54.199-1.242-.522v-.174c.596-9.317 8.746-21.839 18.808-22.063z" fill="#263238"/>
    <path d="M43.889 240.353c.969 4.671 9.367 19.43 23.703 24.573 18.634 6.733 53.493-14.411 71.133-26.411l.323-.249a98.682 98.682 0 00-10.907-10.137 82.324 82.324 0 01-23.554 9.938 84.432 84.432 0 01-20.349 2.485 81.784 81.784 0 01-17.54-1.888 80.066 80.066 0 01-14.76-4.547 85.915 85.915 0 00-8.05 6.236z" fill="#FB0747"/>
    <path d="M66.697 238.564c.174 8.249 1.193 16.324 4.174 16.647 12.175 1.391 25.467-8.771 33.716-17.243a84.482 84.482 0 01-20.349 2.485 81.722 81.722 0 01-17.54-1.889z" fill="#EB9481"/>
    <path d="M84.208 58.695c-2.232 3.257-6.878 4.124-10.41 1.77-3.534-2.354-4.45-6.928-2.219-10.186 2.232-3.257 6.878-4.124 10.411-1.77 3.533 2.355 4.45 6.928 2.218 10.186z" stroke="#FDE565" stroke-width="3"/>
    <path d="M88.963 47.012c8.094-4.555 24.688-12.535 26.311-8.024 2.029 5.639-5.961 11.787-5.605 14.828.356 3.042 3.278 7.804.154 10.872-1.841 1.807-5.781 4.827-7.923 3.538-1.713-1.031-11.244-8.18-15.795-11.625m-29.165.651c-8.949 2.254-13.052 1.007-13.388-3.814-.42-6.028 8.897-6.15 9.375-9.203.478-3.053-3.614-10.353-1.727-12.111 1.887-1.758 6.814-3.14 8.511-1.312 1.358 1.463 10.653 12.235 14.07 16.807" stroke="#FDE565" stroke-width="3" stroke-linecap="round"/>
</svg>
