<svg width="169" height="233" viewBox="0 0 169 233" fill="none" xmlns="http://www.w3.org/2000/svg">
    <path d="M84.213 206.453C37.71 206.453.011 168.754.011 122.25c0-46.503 37.699-84.202 84.202-84.202 46.504 0 84.202 37.699 84.202 84.202 0 46.504-37.698 84.203-84.202 84.203z" fill="#7E4DFE"/>
    <path d="M139.048 204.192s-.249.149-.348.248c-17.641 12.025-52.474 33.169-71.109 26.461-14.336-5.168-22.733-19.877-23.702-24.622 7.453-6.709 18.261-12.821 23.032-16.001 27.504-18.286 52.275-7.329 72.127 13.914z" fill="#455A64"/>
    <path d="M112.488 193.781c-1.243 4.075-22.784 29.592-41.617 27.455-6.137-.721-3.752-34.387-3.752-34.387l-.397-2.484-5.466-35.356 42.66-23.529 6.162-3.081s.844 9.765 1.788 21.939l.15 1.739c0 .696.149 1.342.173 1.988.174 1.814.323 3.677.448 5.516 0 1.416.198 2.783.248 4.273.05 1.491.149 2.932.224 4.423a231.666 231.666 0 01-.621 31.504z" fill="#AD6359"/>
    <path d="M111.866 144.239a71.824 71.824 0 01-45.144 40.026l-5.466-35.355 42.66-23.529 6.162-3.081s.894 9.839 1.788 21.939z" fill="#263238"/>
    <path d="M17.552 90.125c-9.938 62.114 26.163 74.91 39.555 77.022 12.124 1.913 53.716 6.907 69.915-53.767 16.2-60.673-9.516-84.823-37.045-90.686-27.529-5.864-62.586 5.44-72.425 67.43z" fill="#AD6359"/>
    <path d="M121.954 117.753c-15.529-1.863-16.1-50.114-16.1-56.052-.174 3.752-1.267 23.504-2.857 24.175a15.5 15.5 0 01-4.796-1.341 48.32 48.32 0 000-7.106c0-1.094-.62 2.335-1.565 6.559-.87-.323-1.789-.696-2.807-1.044a56.8 56.8 0 00-.249-15.13c-.298-1.889-1.49 6.46-3.876 13.615a190.05 190.05 0 00-40.2-10.56c-3.851-.472-7.23-.695-10.212-.795.472-5.838 1.665-11.975 1.118-10.683A57.147 57.147 0 0037.08 70h-4.447c.274-8.249 5.268-21.044 3.802-19.156a58.287 58.287 0 00-9.64 19.578c-5.69.621-7.454 1.59-7.454.124 0-2.633 1.665-30.142 21.07-45.546 20.994-16.696 65.443-26.5 83.083 16.75 0 0 26.239 9.59 27.506 28.796 1.267 19.206-20.151 48.251-29.046 47.207z" fill="#263238"/>
    <path d="M43.441 126.251a17.547 17.547 0 005.79 6.708 8.025 8.025 0 004.646 1.242c3.577-.223 4.298-3.304 4.199-6.112a19.586 19.586 0 00-.696-4.373 22.613 22.613 0 01-13.939 2.535z" fill="#fff"/>
    <path d="M30.497 82.522c1.466 0 2.832-.348 4.298-.522a7.032 7.032 0 004.273-1.366 2.236 2.236 0 00.249-2.733A5.54 5.54 0 0034 76.137a8.1 8.1 0 00-5.342 2.484 2.485 2.485 0 001.839 3.901zm40.25 5.118c-1.441-.298-2.733-.82-4.125-1.242a7.155 7.155 0 01-4-2.112 2.236 2.236 0 01.249-2.708 5.541 5.541 0 015.54-.82 8.15 8.15 0 014.845 3.33 2.483 2.483 0 01-2.51 3.552zm-9.715 15.057c0-.149.323.248.298.422-.62 4.224-.596 9.168 3.081 11.007.124 0 0 .273 0 .248-4.67-1.192-4.621-7.776-3.379-11.677z" fill="#263238"/>
    <path d="M65.33 98.672c6.883.248 5.889 14.013-.496 13.789-6.386-.223-5.293-13.988.496-13.79z" fill="#263238"/>
    <path d="M67.989 99.516c1.143.845 2.211 2.311 3.652 2.485 1.441.174 3.031-1.068 4.224-2.36 0-.15.249 0 .224.174-.15 2.633-1.342 5.267-4.2 5.466-2.856.198-4.298-2.311-4.77-4.969-.074-.373.398-1.044.87-.796zm-30.635-.696c0-.148-.348.2-.348.374 0 4.273-1.018 9.143-4.969 10.311v.223c4.77-.273 5.889-6.832 5.317-10.907z" fill="#263238"/>
    <path d="M33.95 94.125c-6.832-.969-8.273 12.771-1.938 13.665 6.336.895 7.553-12.845 1.938-13.665z" fill="#263238"/>
    <path d="M30.894 94.746c-1.167.597-2.484 1.814-3.677 1.764-1.192-.05-2.484-1.664-3.28-3.18 0-.15-.223 0-.248.124-.323 2.609.248 5.441 2.708 6.212 2.46.77 4.174-1.392 4.97-3.926.273-.472-.026-1.193-.473-.994zm28.573 40.499c-1.044.994-2.087 2.335-3.652 2.484a11.494 11.494 0 01-4.572-1.217.15.15 0 00-.2.135.149.149 0 00.026.088 5.685 5.685 0 005.342 2.485 4.544 4.544 0 003.478-3.677c.075-.323-.248-.423-.422-.298zM42.97 118.374s-1.417 6.286-1.665 9.268c0 .298.67.497 1.69.621h.123c2.539.686 5.218.66 7.742-.076a14.32 14.32 0 006.57-4.098c.223-.273 0-.621-.423-.447a21.466 21.466 0 01-13.342 2.633c-.15-.844 2.783-10.683 2.31-10.758-2.35.018-4.69.343-6.956.969 2.484-13.193 7.23-25.84 9.59-39.008a.422.422 0 00-.77-.273c-5.814 12.945-9.093 28.051-12.1 41.592-.397 1.714 5.988-.025 7.23-.423z" fill="#263238"/>
    <path d="M116.413 116.586s15.057-18.585 23.579-13.069c8.522 5.515-3.777 33.119-14.46 36.25a10.638 10.638 0 01-13.79-6.709l4.671-16.472z" fill="#AD6359"/>
    <path d="M136.265 111.343a.148.148 0 01.065.218.14.14 0 01-.065.055c-7.454 2.485-11.851 8.945-14.907 15.777 2.36-2.484 5.416-3.826 8.845-.993a.227.227 0 01.107.137.227.227 0 01-.331.26 6.507 6.507 0 00-7.454 1.764 30.531 30.531 0 00-3.826 5.541c-.397.621-1.54.199-1.242-.522v-.174c.596-9.317 8.745-21.839 18.808-22.063z" fill="#263238"/>
    <path d="M43.889 206.353c.968 4.671 9.366 19.43 23.702 24.573 18.635 6.733 53.493-14.411 71.134-26.411l.323-.249a98.595 98.595 0 00-10.908-10.137 82.33 82.33 0 01-23.553 9.938 84.436 84.436 0 01-20.349 2.485 81.784 81.784 0 01-17.541-1.888 80.069 80.069 0 01-14.758-4.547 85.747 85.747 0 00-8.05 6.236z" fill="#455A64"/>
    <path d="M66.697 204.564c.174 8.249 1.192 16.324 4.174 16.647 12.174 1.391 25.467-8.771 33.716-17.243a84.536 84.536 0 01-20.349 2.485 81.722 81.722 0 01-17.541-1.889z" fill="#DD6A57"/>
    <path d="M167.5 166c-2.4-10.4-35.333-22.667-51-27l-4.5 7.5c5.5 4.167 12.4 7.6 16 10 4.5 3 16 10 22 27.5 1.959 5.715 2.425-9.857 4-10 5.5-.5-1.5 27.5 2 25 2.8-2 5.5-12.833 6.5-18v11c2.667-4.333 7.4-15.6 5-26z" fill="#263238"/>
    <path d="M111.951 31.67c9.444-6.28 29.837-17.963 35.859-14.442 6.022 3.522-1.083 32.259-5.388 46.187M22.437 49.418l-3.265-36.626c4.258.833 13.685 3.309 17.327 6.553 3.642 3.243 7.858 4.44 9.51 4.633M33.01 32.026l4.816 6.099m90.088 7.489l5.331-6.929" stroke="#FDE565" stroke-width="3" stroke-linecap="round"/>
</svg>
