<svg width="140" height="239" viewBox="0 0 140 239" fill="none" xmlns="http://www.w3.org/2000/svg">
    <path d="M70 203.745c38.66 0 70-31.34 70-70s-31.34-70-70-70-70 31.34-70 70 31.34 70 70 70z" fill="#7E4DFE"/>
    <path d="M49.975 180.135l6.187 28.069 45.296-33.469 16.243 14.953s-36.377 42.433-65.89 42.433c-15.477 0-18.516-35.525-18.516-35.525l16.68-16.461z" fill="#FFC727"/>
    <path d="M57.058 212.052c11.39 3.542 32.486-12.767 41.318-26.561.59-.94-.197-11.412-.547-24.157-.196-7.739-.218-16.374.328-24.244.132-1.618-50.28 8.569-50.28 8.569a125.18 125.18 0 012.666 30.606 16.429 16.429 0 01-.568 3.214v.524c-1.443 6.012-3.913 28.617 7.083 32.049z" fill="#DD6A57"/>
    <path d="M95.272 137.046c-3.433 13.729-14.254 44.947-40.247 43.723a30.982 30.982 0 01-5.05-.634v-.525c.308-1.047.499-2.125.568-3.214v-.131c.31-5.102.193-10.22-.35-15.303a149.153 149.153 0 00-2.317-15.062l.328-.219c3.957-.852 36.968-7.498 47.068-8.635z" fill="#263238"/>
    <path d="M102.442 74.413c6.078 17.314-1.027 68.339-13.007 80.166-17.38 17.139-46.915 19.959-61.737-1.181-14.384-20.484-3.957-86.833 9.532-97.698 19.894-15.98 56.205-6.843 65.212 18.713z" fill="#DD6A57"/>
    <path d="M97.939 117.239c-11.958-1.814-11.062-23.872-11.062-23.872S66.83 86.94 66.131 71.047c0 0-21.337 9.553-35.831 1.727-14.494-7.827-8.745-24.682-6.559-28.136 2.187-3.454 9.707 4.678 9.707 4.678s2.426-9.662 5.203-10.275c2.776-.612 4.744 5.75 4.744 5.75s20.724-3.694 38.563-.546c17.839 3.148 24.048 22.56 24.048 22.56s9.269 3.454 11.389 10.625c2.121 7.17-11.848 40.881-19.456 39.809zm-44.707-7.454c0-.131.24.196.219.328-.568 3.432-.656 7.454 2.317 9.006v.197c-3.694-1.049-3.541-6.449-2.536-9.531z" fill="#263238"/>
    <path d="M56.861 106.593c5.597.328 4.547 11.477-.634 11.193-5.18-.284-4.044-11.477.634-11.193zm-23.61 1.902c0-.131-.284.131-.284.284-.219 3.454-1.05 7.389-4.372 8.242v.197c3.957-.219 4.962-5.444 4.656-8.723z" fill="#263238"/>
    <path d="M30.518 104.538c-5.53-.94-7.017 10.166-1.902 11.04 5.116.874 6.515-10.231 1.902-11.04zm31.24-2.601a45.652 45.652 0 01-4.175-1.924 7.434 7.434 0 01-3.892-2.799 2.361 2.361 0 01.656-2.82 5.903 5.903 0 015.947 0 8.745 8.745 0 014.612 4.198 2.537 2.537 0 01-3.148 3.345zm-35.022-3.411a40.189 40.189 0 004.547-.743 7.345 7.345 0 004.482-1.618 2.34 2.34 0 00.131-2.886 5.86 5.86 0 00-5.706-1.661 8.745 8.745 0 00-5.574 2.798 2.535 2.535 0 002.12 4.11zm26.737 43.635c-.896.722-1.837 1.749-3.105 1.749a9.516 9.516 0 01-3.629-1.224s-.218 0-.152.153a4.632 4.632 0 004.197 2.296 3.692 3.692 0 003.017-2.799c.065-.196-.197-.284-.328-.175z" fill="#263238"/>
    <path d="M50.85 131.668a11.813 11.813 0 01-8.417 4.372c-1.425.117-2.86.036-4.263-.24l-.809-.175-.743-.197a.898.898 0 01-.612-.852 1.651 1.651 0 010-.35v-.284c.196-2.689.896-6.712.896-6.712-1.028.394-6.23 2.186-6.012.722 1.924-11.456 4.044-24.179 8.351-35.153a.328.328 0 01.634.153c-1.399 11.061-4.744 21.861-6.318 32.923a20.658 20.658 0 015.728-1.115c.372.153-1.465 7.761-1.465 8.963v.131c4.372 1.049 7.936 0 12.592-2.492.416-.219.634.044.438.306z" fill="#263238"/>
    <path d="M39.919 135.056a13.972 13.972 0 005.356 4.701 6.213 6.213 0 003.804.481c2.82-.569 3.038-3.105 2.667-5.313a15.692 15.692 0 00-1.028-3.41 18.211 18.211 0 01-10.8 3.541z" fill="#263238"/>
    <path d="M45.275 139.757a6.213 6.213 0 003.804.481c2.82-.569 3.038-3.105 2.667-5.313a6.556 6.556 0 00-6.471 4.832z" fill="#FF99BA"/>
    <path d="M93.37 116.146s11.083-16.636 18.604-12.723c7.52 3.913-.547 27.873-9.204 31.327a8.889 8.889 0 01-6.964.292 8.898 8.898 0 01-5.038-4.817l2.602-14.079z" fill="#DD6A57"/>
    <path d="M109.503 110.419c.132 0 .153.175 0 .24-6.077 2.602-9.16 8.351-11.28 14.298 1.77-2.318 4.219-3.608 7.302-1.509.153.109 0 .372-.153.328a5.448 5.448 0 00-5.969 2.055 24.744 24.744 0 00-2.776 4.919c-.284.546-1.268.284-1.071-.35a.414.414 0 010-.153c-.24-7.804 5.575-18.844 13.947-19.828z" fill="#263238"/>
    <path d="M50.543 176.593l6.078 29.032 41.777-37.317 10.406 11.717s-40.75 59.026-41.012 56.381l-12.373-24.988-17.162 17.664 6.887-43.897 5.4-8.592z" fill="#fff"/>
    <path d="M44.86 185.6c0-.262.502-.394.502 0-.393 8.963-6.099 34.672-5.99 41.318.722-.765 15.894-15.565 16.068-15.303 2.646 3.957 11.674 22.145 12.286 23.807 5.772-8.504 32.574-43.46 39.11-52.336a.254.254 0 01.149-.12.252.252 0 01.31.171.254.254 0 01-.021.189c-4.854 9.882-38.717 55.79-39.154 55.659a278.307 278.307 0 01-12.702-26.605c-2.557 3.214-17.86 19.894-17.926 18.823-.546-7.258 4.919-36.618 7.367-45.603z" fill="#263238"/>
    <path d="M76.456 41.48c-7.604-2.454-19.132.796-24.945 3.28l-4.007-24.414 13.977 1.134 6.995-11.67 12.246 10.535 10.84-3.506 2.864 32.64c0 1.5-11.074-5.775-17.97-8zm0 0c-7.597-.196-20.926-1.391-28.952 5.5-3.494 3-6.532 7.759-6.988 12-.365 3.393-4.218 5.867-7.488 6.5 2.233 2.633 9.3 3.317 15.974 2.5 6.674-.817 14.491-7.567 15.925-12.393" stroke="#FDE565" stroke-width="3" stroke-linecap="round"/>
</svg>
