<svg width="169" height="233" viewBox="0 0 169 233" fill="none" xmlns="http://www.w3.org/2000/svg">
<path d="M84.2132 206.453C37.7096 206.453 0.0109863 168.754 0.0109863 122.25C0.0109863 75.7467 37.7096 38.0481 84.2132 38.0481C130.717 38.0481 168.415 75.7467 168.415 122.25C168.415 168.754 130.717 206.453 84.2132 206.453Z" fill="#7E4DFE"/>
<path d="M139.048 204.192C139.048 204.192 138.799 204.341 138.7 204.44C121.059 216.465 86.2257 237.609 67.5914 230.901C53.2554 225.733 44.8575 211.024 43.8885 206.279C51.3423 199.57 62.1502 193.458 66.9206 190.278C94.4248 171.992 119.196 182.949 139.048 204.192Z" fill="#455A64"/>
<path d="M112.488 193.781C111.245 197.856 89.7041 223.373 70.871 221.236C64.7341 220.515 67.1193 186.849 67.1193 186.849L66.7218 184.365L61.2557 149.009L103.916 125.48L110.078 122.399C110.078 122.399 110.922 132.164 111.866 144.338L112.016 146.077C112.016 146.773 112.165 147.419 112.189 148.065C112.363 149.879 112.512 151.742 112.637 153.581C112.637 154.997 112.835 156.364 112.885 157.854C112.935 159.345 113.034 160.786 113.109 162.277C113.617 172.78 113.41 183.306 112.488 193.781Z" fill="#AD6359"/>
<path d="M111.866 144.239C107.695 153.785 101.496 162.31 93.7005 169.222C85.905 176.134 76.6992 181.267 66.7218 184.265L61.2557 148.91L103.916 125.381L110.078 122.3C110.078 122.3 110.972 132.139 111.866 144.239Z" fill="#263238"/>
<path d="M17.5521 90.1249C7.61378 152.239 43.7147 165.035 57.1065 167.147C69.2312 169.06 110.823 174.054 127.022 113.38C143.222 52.7072 117.506 28.5571 89.9774 22.6935C62.4483 16.83 27.391 28.1348 17.5521 90.1249Z" fill="#AD6359"/>
<path d="M121.954 117.753C106.425 115.89 105.854 67.6395 105.854 61.7013C105.68 65.453 104.587 85.2054 102.997 85.8762C101.336 85.6903 99.7171 85.2372 98.2014 84.5346C98.3758 82.1692 98.3758 79.7941 98.2014 77.4287C98.2014 76.3355 97.5802 79.7642 96.6361 83.988C95.7665 83.665 94.8472 83.2923 93.8285 82.9444C94.421 77.9123 94.3374 72.8234 93.5801 67.8134C93.2819 65.9251 92.0893 74.2733 89.7041 81.4288C76.7304 76.4499 63.2496 72.9089 49.5037 70.8694C45.6526 70.3974 42.2736 70.1737 39.2921 70.0743C39.7642 64.2356 40.9568 58.0987 40.4102 59.3907C38.9582 62.8104 37.8431 66.3636 37.0808 69.9998C35.4659 69.9998 33.9751 69.9998 32.6335 69.9998C32.9068 61.751 37.9008 48.9555 36.4349 50.8438C32.0176 56.7048 28.7468 63.3473 26.7947 70.4222C21.105 71.0433 19.341 72.0123 19.341 70.5464C19.341 67.9128 21.0057 40.4043 40.4102 24.9999C61.4048 8.30359 105.854 -1.50001 123.494 41.7502C123.494 41.7502 149.733 51.3407 151 70.5464C152.267 89.7522 130.849 118.797 121.954 117.753Z" fill="#263238"/>
<path d="M43.4414 126.251C44.7652 128.945 46.7585 131.255 49.2304 132.959C50.6157 133.838 52.2373 134.272 53.8766 134.201C57.4544 133.978 58.1749 130.897 58.0756 128.089C58.0098 126.61 57.7763 125.143 57.3798 123.716C53.1252 126.032 48.2391 126.921 43.4414 126.251Z" fill="white"/>
<path d="M30.4967 82.5221C31.9626 82.5221 33.3291 82.1742 34.795 82.0003C36.3305 82.0237 37.8315 81.5437 39.0685 80.6338C39.4077 80.2706 39.6163 79.8048 39.6613 79.3099C39.7063 78.815 39.5852 78.3192 39.317 77.9008C38.6674 77.1608 37.8324 76.6073 36.8978 76.2973C35.9633 75.9872 34.9631 75.9318 34 76.1367C31.9706 76.265 30.0638 77.1519 28.6581 78.6213C28.4073 78.9799 28.2557 79.3984 28.2185 79.8345C28.1814 80.2706 28.2601 80.7088 28.4467 81.1046C28.6333 81.5005 28.9212 81.8401 29.2811 82.089C29.6411 82.3379 30.0605 82.4873 30.4967 82.5221Z" fill="#263238"/>
<path d="M70.7468 87.6403C69.3058 87.3421 68.0138 86.8204 66.6224 86.398C65.0958 86.1451 63.6922 85.4041 62.6223 84.2861C62.3602 83.8702 62.2426 83.3794 62.2875 82.8899C62.3324 82.4003 62.5374 81.9393 62.8707 81.5779C63.6382 80.9614 64.556 80.5604 65.5298 80.4163C66.5036 80.2722 67.4982 80.3902 68.4113 80.758C70.3843 81.2264 72.1118 82.4134 73.2563 84.0873C73.45 84.487 73.533 84.9313 73.4966 85.3739C73.4603 85.8166 73.306 86.2414 73.0498 86.6042C72.7936 86.9669 72.4448 87.2544 72.0398 87.4366C71.6347 87.6189 71.1883 87.6892 70.7468 87.6403Z" fill="#263238"/>
<path d="M61.0322 102.697C61.0322 102.548 61.3552 102.945 61.3303 103.119C60.7092 107.343 60.734 112.287 64.4112 114.126C64.5354 114.126 64.4112 114.399 64.4112 114.374C59.7402 113.182 59.7899 106.598 61.0322 102.697Z" fill="#263238"/>
<path d="M65.3305 98.6718C72.2127 98.9203 71.2189 112.685 64.8335 112.461C58.4482 112.238 59.5414 98.473 65.3305 98.6718Z" fill="#263238"/>
<path d="M67.9889 99.5165C69.1318 100.361 70.2002 101.827 71.6413 102.001C73.0823 102.175 74.6724 100.933 75.865 99.6407C75.865 99.4916 76.1135 99.6407 76.0887 99.8146C75.9396 102.448 74.747 105.082 71.8897 105.281C69.0325 105.479 67.5914 102.97 67.1194 100.312C67.0448 99.9389 67.5169 99.268 67.9889 99.5165Z" fill="#263238"/>
<path d="M37.3542 98.8208C37.3542 98.6718 37.0063 99.0196 37.0063 99.1935C37.0063 103.467 35.9876 108.337 32.0372 109.505C32.0372 109.505 32.0372 109.753 32.0372 109.728C36.8075 109.455 37.9256 102.896 37.3542 98.8208Z" fill="#263238"/>
<path d="M33.9504 94.1251C27.1178 93.1561 25.6767 106.896 32.0124 107.79C38.3481 108.685 39.5655 94.945 33.9504 94.1251Z" fill="#263238"/>
<path d="M30.8943 94.7462C29.7266 95.3425 28.4097 96.5599 27.2171 96.5102C26.0245 96.4605 24.7326 94.8456 23.9375 93.33C23.9375 93.1809 23.7139 93.33 23.689 93.4542C23.366 96.063 23.9375 98.8954 26.3973 99.6656C28.857 100.436 30.5713 98.2743 31.3664 95.74C31.6397 95.2679 31.3415 94.5474 30.8943 94.7462Z" fill="#263238"/>
<path d="M59.4669 135.245C58.4234 136.239 57.3799 137.58 55.8146 137.729C54.2228 137.645 52.6661 137.23 51.243 136.512C51.2134 136.501 51.1813 136.5 51.1511 136.509C51.1209 136.518 51.0943 136.536 51.075 136.561C51.0558 136.585 51.0448 136.616 51.0437 136.647C51.0427 136.678 51.0515 136.709 51.0691 136.735C51.6479 137.598 52.4517 138.285 53.3933 138.723C54.335 139.161 55.3785 139.333 56.4109 139.22C57.2898 139.021 58.0898 138.565 58.7091 137.91C59.3284 137.256 59.7392 136.431 59.8893 135.543C59.9638 135.22 59.6408 135.12 59.4669 135.245Z" fill="#263238"/>
<path d="M42.9693 118.374C42.9693 118.374 41.5531 124.66 41.3046 127.642C41.3046 127.94 41.9755 128.139 42.9941 128.263C42.9941 128.263 42.9941 128.263 43.1184 128.263C45.657 128.949 48.3357 128.923 50.8603 128.187C53.385 127.45 55.6579 126.032 57.4295 124.089C57.6531 123.816 57.4295 123.468 57.0071 123.642C52.9627 125.942 48.2803 126.867 43.665 126.275C43.5159 125.431 46.4477 115.592 45.9756 115.517C43.6243 115.535 41.2854 115.86 39.0188 116.486C41.5034 103.293 46.2489 90.6466 48.6093 77.4783C48.6172 77.3853 48.5941 77.2922 48.5435 77.2137C48.4929 77.1351 48.4177 77.0756 48.3297 77.0443C48.2416 77.0131 48.1457 77.0119 48.057 77.041C47.9682 77.0701 47.8915 77.1278 47.8391 77.205C42.0252 90.1497 38.7455 105.256 35.7392 118.797C35.3417 120.511 41.727 118.772 42.9693 118.374Z" fill="#263238"/>
<path d="M116.413 116.586C116.413 116.586 131.47 98.0009 139.992 103.517C148.514 109.032 136.215 136.636 125.532 139.767C124.188 140.261 122.758 140.479 121.327 140.407C119.897 140.335 118.496 139.975 117.208 139.349C115.921 138.722 114.773 137.842 113.833 136.761C112.894 135.68 112.183 134.421 111.742 133.058L116.413 116.586Z" fill="#AD6359"/>
<path d="M136.265 111.343C136.292 111.355 136.314 111.374 136.33 111.398C136.346 111.422 136.354 111.451 136.354 111.48C136.354 111.509 136.346 111.537 136.33 111.561C136.314 111.586 136.292 111.605 136.265 111.616C128.811 114.101 124.414 120.561 121.358 127.393C123.718 124.909 126.774 123.567 130.203 126.4C130.255 126.429 130.294 126.479 130.31 126.537C130.327 126.595 130.319 126.657 130.29 126.71C130.26 126.763 130.211 126.802 130.152 126.818C130.094 126.834 130.032 126.827 129.979 126.797C128.71 126.265 127.304 126.15 125.965 126.467C124.626 126.784 123.422 127.517 122.525 128.561C121.05 130.261 119.766 132.119 118.699 134.102C118.302 134.723 117.159 134.301 117.457 133.58V133.406C118.053 124.089 126.202 111.567 136.265 111.343Z" fill="#263238"/>
<path d="M43.8885 206.353C44.8575 211.024 53.2554 225.783 67.5914 230.926C86.2257 237.659 121.084 216.515 138.725 204.515L139.048 204.266C135.673 200.617 132.026 197.228 128.14 194.129C120.854 198.648 112.907 202.001 104.587 204.067C97.9298 205.719 91.0966 206.553 84.238 206.552C78.34 206.557 72.4587 205.924 66.6969 204.664C61.6424 203.627 56.7 202.105 51.9386 200.117C49.1341 202.034 46.446 204.117 43.8885 206.353Z" fill="#455A64"/>
<path d="M66.6969 204.564C66.8708 212.813 67.8895 220.888 70.871 221.211C83.0454 222.602 96.3379 212.44 104.587 203.968C97.9298 205.619 91.0966 206.453 84.238 206.453C78.34 206.458 72.4587 205.825 66.6969 204.564Z" fill="#DD6A57"/>
<path d="M167.5 166C165.1 155.6 132.167 143.333 116.5 139L112 146.5C117.5 150.667 124.4 154.1 128 156.5C132.5 159.5 144 166.5 150 184C151.959 189.715 152.425 174.143 154 174C159.5 173.5 152.5 201.5 156 199C158.8 197 161.5 186.167 162.5 181V192C165.167 187.667 169.9 176.4 167.5 166Z" fill="#263238"/>
<path d="M111.951 31.6705C121.395 25.3891 141.788 13.7068 147.81 17.2283C153.832 20.7498 146.727 49.4868 142.422 63.4151M22.4371 49.4176L19.1715 12.7925C23.4298 13.6249 32.857 16.1007 36.499 19.3445C40.141 22.5883 44.3568 23.7849 46.0095 23.9777" stroke="#FDE565" stroke-width="3" stroke-linecap="round"/>
<path d="M33.0093 32.0255L37.8259 38.1247" stroke="#FDE565" stroke-width="3" stroke-linecap="round"/>
<path d="M127.914 45.6141L133.245 38.6852" stroke="#FDE565" stroke-width="3" stroke-linecap="round"/>
</svg>
