<svg width="140" height="239" viewBox="0 0 140 239" fill="none" xmlns="http://www.w3.org/2000/svg">
<path d="M70 203.745C108.66 203.745 140 172.405 140 133.745C140 95.0849 108.66 63.7448 70 63.7448C31.3401 63.7448 0 95.0849 0 133.745C0 172.405 31.3401 203.745 70 203.745Z" fill="#7E4DFE"/>
<path d="M49.975 180.135L56.1618 208.204L101.458 174.735L117.701 189.688C117.701 189.688 81.3242 232.121 51.8114 232.121C36.3336 232.121 33.2948 196.596 33.2948 196.596L49.975 180.135Z" fill="#FFC727"/>
<path d="M57.0581 212.052C68.4478 215.594 89.544 199.285 98.376 185.491C98.9663 184.551 98.1793 174.079 97.8295 161.334C97.6327 153.595 97.6108 144.96 98.1574 137.09C98.2885 135.472 47.8763 145.659 47.8763 145.659C50.0186 155.713 50.9144 165.992 50.5434 176.265C50.4611 177.352 50.2708 178.429 49.975 179.479C49.975 179.61 49.975 179.807 49.975 180.003C48.5322 186.015 46.0618 208.62 57.0581 212.052Z" fill="#DD6A57"/>
<path d="M95.2717 137.046C91.8395 150.775 81.0181 181.993 55.025 180.769C53.3271 180.697 51.6381 180.484 49.975 180.135C49.975 179.938 49.975 179.741 49.975 179.61C50.2831 178.563 50.4737 177.485 50.5434 176.396V176.265C50.8529 171.163 50.7359 166.045 50.1936 160.962C49.6783 155.905 48.9049 150.878 47.8763 145.9L48.2043 145.681C52.1612 144.829 85.1718 138.183 95.2717 137.046Z" fill="#263238"/>
<path d="M102.442 74.4132C108.52 91.7273 101.415 142.752 89.4347 154.579C72.055 171.718 42.5203 174.538 27.6984 153.398C13.3136 132.914 23.7414 66.5649 37.2299 55.6999C57.1237 39.7192 93.4354 48.8573 102.442 74.4132Z" fill="#DD6A57"/>
<path d="M97.9388 117.239C85.9807 115.425 86.877 93.3669 86.877 93.3669C86.877 93.3669 66.8301 86.9397 66.1305 71.0465C66.1305 71.0465 44.7939 80.5999 30.2999 72.7736C15.8058 64.9472 21.5553 48.0921 23.7415 44.638C25.9276 41.1839 33.4479 49.3163 33.4479 49.3163C33.4479 49.3163 35.8744 39.6536 38.6508 39.0415C41.4272 38.4294 43.3948 44.791 43.3948 44.791C43.3948 44.791 64.1193 41.0965 81.9582 44.2445C99.797 47.3925 106.006 66.8054 106.006 66.8054C106.006 66.8054 115.275 70.2595 117.395 77.43C119.516 84.6005 105.547 118.311 97.9388 117.239Z" fill="#263238"/>
<path d="M53.2324 109.785C53.2324 109.654 53.4728 109.981 53.451 110.113C52.8826 113.545 52.7951 117.567 55.7683 119.119C55.7683 119.119 55.7683 119.338 55.7683 119.316C52.0737 118.267 52.2267 112.867 53.2324 109.785Z" fill="#263238"/>
<path d="M56.8613 106.593C62.4578 106.921 61.4085 118.07 56.2273 117.786C51.0462 117.502 52.183 106.309 56.8613 106.593Z" fill="#263238"/>
<path d="M33.2511 108.495C33.2511 108.364 32.9669 108.626 32.9669 108.779C32.7483 112.233 31.9176 116.168 28.5947 117.021V117.218C32.5516 116.999 33.5571 111.774 33.2511 108.495Z" fill="#263238"/>
<path d="M30.5184 104.538C24.9875 103.598 23.5009 114.704 28.6165 115.578C33.732 116.452 35.1312 105.347 30.5184 104.538Z" fill="#263238"/>
<path d="M61.7583 101.937C60.3347 101.366 58.9411 100.724 57.5827 100.013C56.0122 99.5353 54.644 98.5514 53.6914 97.2145C53.4721 96.7384 53.4176 96.2028 53.5363 95.6921C53.655 95.1815 53.9404 94.725 54.3473 94.3944C55.2498 93.8682 56.2757 93.5909 57.3204 93.5909C58.3651 93.5909 59.3911 93.8682 60.2936 94.3944C62.2948 95.1791 63.9369 96.6733 64.9063 98.5918C65.0841 99.0399 65.1305 99.5293 65.0401 100.003C64.9497 100.476 64.7262 100.914 64.3959 101.265C64.0655 101.616 63.6419 101.866 63.1748 101.985C62.7076 102.104 62.2162 102.087 61.7583 101.937Z" fill="#263238"/>
<path d="M26.7364 98.5262C28.2651 98.3656 29.7833 98.1174 31.2835 97.7829C32.9157 97.7566 34.4925 97.1874 35.7652 96.1651C36.1069 95.7683 36.3056 95.2682 36.3294 94.745C36.3532 94.2218 36.2007 93.7057 35.8963 93.2795C35.1798 92.5189 34.2729 91.9638 33.2697 91.6716C32.2664 91.3795 31.2033 91.361 30.1905 91.618C28.0515 91.8338 26.0669 92.83 24.6159 94.4163C24.312 94.7987 24.125 95.2608 24.0775 95.7469C24.0299 96.233 24.1237 96.7226 24.3477 97.1567C24.5716 97.5908 24.9162 97.9509 25.34 98.1939C25.7638 98.4368 26.2486 98.5522 26.7364 98.5262Z" fill="#263238"/>
<path d="M53.4728 142.161C52.5765 142.883 51.6365 143.91 50.3685 143.91C49.0885 143.752 47.8539 143.336 46.7395 142.686C46.7395 142.686 46.5209 142.686 46.5865 142.839C47.0112 143.567 47.6265 144.166 48.3661 144.57C49.1057 144.975 49.9417 145.17 50.7839 145.135C51.5076 145.02 52.1807 144.693 52.7179 144.194C53.2551 143.696 53.6321 143.049 53.8008 142.336C53.8664 142.14 53.604 142.052 53.4728 142.161Z" fill="#263238"/>
<path d="M50.8495 131.668C49.8252 132.939 48.5483 133.984 47.0996 134.737C45.6509 135.489 44.0619 135.933 42.4329 136.04C41.0076 136.157 39.573 136.076 38.1699 135.8L37.361 135.625L36.6178 135.428C36.4391 135.368 36.2838 135.254 36.1739 135.101C36.064 134.948 36.0051 134.764 36.0056 134.576C35.9932 134.459 35.9932 134.342 36.0056 134.226V133.942C36.2024 131.253 36.902 127.23 36.902 127.23C35.8745 127.624 30.6715 129.416 30.8901 127.952C32.8139 116.496 34.9345 103.773 39.2411 92.7986C39.2683 92.7223 39.3228 92.6588 39.394 92.6202C39.4652 92.5817 39.5482 92.5709 39.627 92.5899C39.7057 92.6089 39.7746 92.6564 39.8204 92.7231C39.8662 92.7899 39.8857 92.8713 39.8751 92.9516C38.476 104.013 35.1312 114.813 33.5572 125.875C35.404 125.234 37.3325 124.859 39.2848 124.76C39.6565 124.913 37.8202 132.521 37.8202 133.723V133.854C42.1924 134.903 45.7558 133.854 50.4122 131.362C50.8276 131.143 51.0463 131.406 50.8495 131.668Z" fill="#263238"/>
<path d="M39.9188 135.056C41.2678 137.06 43.1132 138.679 45.2748 139.757C46.4603 140.314 47.7918 140.483 49.0787 140.238C51.8988 139.669 52.1174 137.133 51.7458 134.925C51.5338 133.753 51.1891 132.609 50.7183 131.515C47.5885 133.817 43.8043 135.058 39.9188 135.056Z" fill="#263238"/>
<path d="M45.2748 139.757C46.4603 140.314 47.7918 140.483 49.0787 140.238C51.8988 139.669 52.1174 137.133 51.7458 134.925C50.2828 134.893 48.8511 135.351 47.6785 136.227C46.5059 137.102 45.6598 138.345 45.2748 139.757Z" fill="#FF99BA"/>
<path d="M93.3697 116.146C93.3697 116.146 104.453 99.5099 111.974 103.423C119.494 107.336 111.427 131.296 102.77 134.75C101.689 135.265 100.515 135.557 99.3178 135.607C98.1212 135.657 96.9267 135.465 95.806 135.042C94.6853 134.62 93.6614 133.975 92.7958 133.148C91.9301 132.32 91.2405 131.326 90.7683 130.225L93.3697 116.146Z" fill="#DD6A57"/>
<path d="M109.503 110.419C109.635 110.419 109.656 110.594 109.503 110.659C103.426 113.261 100.343 119.01 98.2229 124.957C99.9937 122.639 102.442 121.349 105.525 123.448C105.678 123.557 105.525 123.82 105.372 123.776C104.287 123.456 103.129 123.482 102.059 123.85C100.99 124.218 100.061 124.911 99.4035 125.831C98.2933 127.359 97.3618 129.01 96.6271 130.75C96.3429 131.296 95.3591 131.034 95.5559 130.4C95.5464 130.349 95.5464 130.298 95.5559 130.247C95.3154 122.443 101.131 111.403 109.503 110.419Z" fill="#263238"/>
<path d="M50.5434 176.593L56.6208 205.625L98.3979 168.308L108.804 180.025C108.804 180.025 68.0543 239.051 67.792 236.406L55.4185 211.418L38.2573 229.082L45.1436 185.185L50.5434 176.593Z" fill="white"/>
<path d="M44.8595 185.6C44.8595 185.338 45.3623 185.206 45.3623 185.6C44.9688 194.563 39.263 220.272 39.3723 226.918C40.0937 226.153 55.2655 211.353 55.4404 211.615C58.0856 215.572 67.1143 233.76 67.7264 235.422C73.4978 226.918 100.3 191.962 106.836 183.086C106.868 183.028 106.922 182.985 106.985 182.966C107.049 182.948 107.117 182.956 107.175 182.988C107.233 183.019 107.276 183.073 107.295 183.137C107.313 183.2 107.305 183.268 107.274 183.326C102.42 193.208 68.5571 239.116 68.1199 238.985C63.4191 230.347 59.1793 221.467 55.4185 212.38C52.8607 215.594 37.5578 232.274 37.4922 231.203C36.9456 223.945 42.411 194.585 44.8595 185.6Z" fill="#263238"/>
<path d="M76.4559 41.4798C68.852 39.0261 57.3241 42.2758 51.5109 44.7601L47.5042 20.3458L61.4809 21.4798L68.4757 9.81149L80.7224 20.3458L91.5625 16.8395L94.4259 49.4798C94.4259 50.9798 83.3522 43.7052 76.4559 41.4798ZM76.4559 41.4798C68.8595 41.2837 55.5303 40.0889 47.5043 46.9798C44.0101 49.9798 40.9719 54.7386 40.5159 58.9798C40.1512 62.3728 36.2983 64.8472 33.0284 65.4798C35.2611 68.1131 42.3273 68.7966 49.0018 67.9798C55.6762 67.1631 63.4932 60.4132 64.9268 55.5874" stroke="#FDE565" stroke-width="3" stroke-linecap="round"/>
</svg>
