<svg width="290" height="267" viewBox="0 0 290 267" fill="none" xmlns="http://www.w3.org/2000/svg">
<path d="M236 162C265.823 132.177 265.823 83.8234 236 54C206.177 24.1766 157.823 24.1766 128 54C98.1766 83.8233 98.1766 132.177 128 162C157.823 191.823 206.177 191.823 236 162Z" fill="#7E4DFE"/>
<path d="M203.881 158.61L197.107 189.082L150.93 157.391L139.468 174.315C139.468 174.315 169.682 215.194 201.865 215.194C218.765 215.194 222.07 176.448 222.07 176.448L203.881 158.61Z" fill="#FFC727"/>
<path d="M196.146 193.418C183.722 197.286 160.704 179.495 151.071 164.447C150.414 163.415 151.281 152 151.68 138.077C151.867 129.638 151.914 120.239 151.305 111.66C151.188 109.878 157.399 112.715 157.399 112.715L168.697 114.613L206.061 121.012C206.061 121.012 202.029 139.366 203.154 154.321C203.241 155.51 203.445 156.688 203.764 157.837C203.764 158.001 203.764 158.188 203.764 158.399C205.428 165.033 208.241 189.715 196.146 193.418Z" fill="#EB9481"/>
<path d="M203.764 158.024C203.764 158.188 203.764 158.376 203.764 158.61C201.949 158.985 200.107 159.212 198.255 159.29C161.923 161.001 154.211 115.199 154.211 115.199L168.58 114.824L205.944 121.2C205.944 121.2 201.912 139.577 203.037 154.532C203.16 155.717 203.403 156.888 203.764 158.024Z" fill="#263238"/>
<path d="M146.64 43.2853C140.007 62.1545 147.742 117.824 160.822 130.74C179.785 149.492 211.991 152.516 228.188 129.451C243.87 107.089 232.478 34.7063 217.757 22.8691C196.075 5.42972 156.462 15.3917 146.64 43.2853Z" fill="#EB9481"/>
<path d="M200.224 81.891C200.224 81.7503 199.966 82.1019 199.99 82.2426C200.599 85.993 200.693 90.3763 197.458 92.0639C197.458 92.0639 197.458 92.3218 197.458 92.2749C201.584 91.1263 201.42 85.2898 200.224 81.891Z" fill="#263238"/>
<path d="M196.357 78.3985C190.262 78.7501 191.411 90.9154 197.06 90.5872C202.709 90.259 201.467 78.0937 196.357 78.3985Z" fill="#263238"/>
<path d="M222.094 80.4143C222.094 80.2502 222.422 80.5549 222.422 80.719C222.656 84.4928 223.57 88.7823 227.11 89.7199V89.9309C222.867 89.7434 221.719 84.024 222.094 80.4143Z" fill="#263238"/>
<path d="M225.094 76.1482C231.118 75.1168 232.736 87.2353 227.157 88.1964C221.578 89.1574 219.961 77.0154 225.094 76.1482Z" fill="#263238"/>
<path d="M191.012 73.2885C192.63 72.7025 194.036 71.9056 195.583 71.1789C197.287 70.6559 198.77 69.5847 199.802 68.1317C200.041 67.6142 200.101 67.0321 199.974 66.4765C199.847 65.921 199.539 65.4232 199.099 65.0611C198.114 64.4843 196.994 64.1802 195.853 64.1802C194.711 64.1802 193.591 64.4843 192.606 65.0611C190.422 65.9049 188.633 67.5354 187.59 69.6319C187.395 70.1198 187.343 70.6532 187.441 71.1696C187.538 71.686 187.78 72.164 188.139 72.5476C188.498 72.9313 188.959 73.2047 189.468 73.3359C189.977 73.4671 190.512 73.4506 191.012 73.2885Z" fill="#263238"/>
<path d="M229.337 69.585C227.676 69.4032 226.025 69.1372 224.391 68.7881C222.607 68.7478 220.885 68.1218 219.492 67.0066C219.12 66.5708 218.902 66.0244 218.873 65.4523C218.843 64.8801 219.003 64.3141 219.328 63.8422C220.118 63.0148 221.114 62.4134 222.215 62.1002C223.315 61.787 224.479 61.7734 225.586 62.0608C227.912 62.268 230.073 63.3484 231.634 65.0845C231.97 65.5003 232.178 66.0045 232.233 66.5362C232.289 67.0679 232.189 67.6043 231.946 68.0804C231.703 68.5565 231.327 68.952 230.864 69.219C230.401 69.4861 229.87 69.6132 229.337 69.585Z" fill="#263238"/>
<path d="M200.06 117.168C201.045 117.965 202.053 119.09 203.435 119.09C204.835 118.927 206.185 118.472 207.397 117.754C207.408 117.742 207.421 117.732 207.435 117.725C207.45 117.717 207.466 117.713 207.482 117.712C207.499 117.711 207.515 117.713 207.531 117.718C207.546 117.723 207.56 117.732 207.573 117.743C207.585 117.753 207.595 117.766 207.602 117.781C207.61 117.796 207.614 117.812 207.615 117.828C207.616 117.844 207.614 117.861 207.609 117.876C207.603 117.892 207.595 117.906 207.584 117.918C207.11 118.728 206.422 119.391 205.594 119.834C204.767 120.276 203.833 120.481 202.896 120.426C202.109 120.3 201.378 119.943 200.794 119.4C200.209 118.858 199.799 118.155 199.615 117.379C199.638 117.168 199.919 117.051 200.06 117.168Z" fill="#263238"/>
<path d="M202.357 107.136C206.201 110.253 219.047 110.253 219.093 109.832L218.039 100.807C219.164 101.252 224.789 103.151 224.555 101.651C222.633 89.1808 220.476 75.3044 215.906 63.2797C215.876 63.1979 215.818 63.1297 215.742 63.0884C215.665 63.0471 215.576 63.0356 215.492 63.056C215.407 63.0763 215.334 63.1272 215.284 63.1988C215.235 63.2704 215.214 63.3577 215.226 63.4437C216.609 75.5154 220.101 87.2588 221.695 99.3539C219.686 98.6433 217.587 98.2172 215.46 98.0881C215.062 98.2522 216.96 106.55 216.96 107.863C212.277 108.071 207.594 107.444 203.131 106.011C201.654 105.542 201.326 106.315 202.357 107.136Z" fill="#263238"/>
<path d="M153.415 88.2432C158.103 87.0477 162.65 71.4602 162.791 56.3179C162.791 46.5903 166.775 34.3078 177.628 30.6512C184.848 28.3072 197.411 34.1672 204.584 32.4092C211.757 30.6512 213.093 26.5491 217.335 26.6663C221.578 26.7835 226.313 37.2143 226.313 37.2143C226.313 37.2143 218.742 4.25766 176.362 14.8525C131.826 26.0334 140.687 64.2641 144.976 76.5232C148.305 85.993 153.415 88.2432 153.415 88.2432Z" fill="#263238"/>
<path d="M156.673 88.923C156.673 88.923 144.554 70.7804 136.35 75.0465C128.146 79.3126 136.96 105.519 146.406 109.199C147.581 109.766 148.86 110.09 150.164 110.15C151.468 110.209 152.771 110.004 153.993 109.546C155.216 109.088 156.333 108.387 157.277 107.486C158.221 106.584 158.972 105.5 159.485 104.3L156.673 88.923Z" fill="#EB9481"/>
<path d="M138.952 82.5473C138.927 82.5583 138.906 82.5763 138.891 82.5992C138.876 82.6221 138.868 82.6489 138.868 82.6762C138.868 82.7036 138.876 82.7304 138.891 82.7533C138.906 82.7762 138.927 82.7943 138.952 82.8052C145.586 85.6649 148.961 91.9467 151.281 98.4162C149.336 95.9081 146.593 94.4783 143.312 96.7754C143.124 96.7754 143.312 97.1739 143.476 97.127C144.659 96.7844 145.92 96.8143 147.085 97.2126C148.251 97.611 149.266 98.3586 149.992 99.3538C151.176 101.038 152.189 102.836 153.016 104.722C153.297 105.331 154.399 105.05 154.188 104.347C154.174 104.293 154.174 104.236 154.188 104.182C154.329 95.6738 148.07 83.6256 138.952 82.5473Z" fill="#263238"/>
<path d="M149.377 165.966C136.068 171.972 102.863 184.487 76.5078 186.499C50.1527 188.511 27.9215 184.688 20.1002 182.525C16.7741 186.36 13.0184 196.528 24.6035 206.523" stroke="#FDE565" stroke-width="3" stroke-linecap="round"/>
<path d="M58.1961 211.007C58.1961 211.007 51.6442 213.306 40.7269 214.666C17.7665 217.526 11.3701 215.068 3.26537 214.682C0.863609 219.157 -0.565576 229.904 12.9318 237.099" stroke="#FDE565" stroke-width="3" stroke-linecap="round"/>
<path d="M94.6373 215.491C81.6646 227.997 72.1949 230.4 62.2003 235.006C43.7349 243.514 30.5968 241.858 22.7059 243.75C21.6444 248.718 23.2625 259.438 38.2272 262.579" stroke="#FDE565" stroke-width="3" stroke-linecap="round"/>
<path d="M144.055 184.5C146.551 187.833 154.737 195.1 167.516 197.5" stroke="#FDE565" stroke-width="3" stroke-linecap="round"/>
<path d="M208.448 159C233.905 159 215.636 177.4 208.448 185C201.26 192.6 197.466 195.5 196.468 196C202.79 195.5 217.333 191.7 224.92 180.5C232.508 169.3 234.072 170.167 233.905 172" stroke="#FDE565" stroke-width="3" stroke-linecap="round"/>
<path d="M200.467 203.5C200.467 207.849 196.74 211.5 191.983 211.5C187.227 211.5 183.5 207.849 183.5 203.5C183.5 199.151 187.227 195.5 191.983 195.5C196.74 195.5 200.467 199.151 200.467 203.5Z" stroke="#FDE565" stroke-width="3"/>
</svg>
