<svg width="184" height="267" viewBox="0 0 184 267" fill="none" xmlns="http://www.w3.org/2000/svg">
<path d="M84.2135 240.453C37.7099 240.453 0.011261 202.754 0.011261 156.25C0.011261 109.747 37.7099 72.0482 84.2135 72.0482C130.717 72.0482 168.416 109.747 168.416 156.25C168.416 202.754 130.717 240.453 84.2135 240.453Z" fill="#7E4DFE"/>
<path d="M15.5646 244.5H22.7451C23.4904 235.332 9.8005 197.296 8.21037 204.352C7.28471 209.674 26.4801 239.108 26.7949 244.5H148.44C149.856 230.711 124.19 184.003 124.19 184.003C131.222 195.407 153.434 235.605 154.452 244.5H165.931C167.124 236.251 144.688 198.116 144.688 198.116C147.843 203.656 169.161 238.09 170.08 244.5H183.149C183.646 230.711 159.446 188.55 148.44 172.102C139.619 158.909 150.552 151.232 150.328 125.541C150.104 91.3534 126.65 78.3343 122.749 74.6571C69.7036 25.5123 21.5525 71.1291 16.3846 103.602C11.4155 135.355 20.5339 139.554 5.7755 168.4C-5.38024 189.941 15.5646 244.5 15.5646 244.5Z" fill="#80483A"/>
<path d="M139.048 238.192C139.048 238.192 138.8 238.341 138.7 238.44C121.06 250.465 86.2259 271.609 67.5916 264.901C53.2556 259.733 44.8578 245.024 43.8888 240.279C51.3425 233.57 62.1504 227.458 66.9208 224.278C94.4251 205.992 119.196 216.949 139.048 238.192Z" fill="#FB0747"/>
<path d="M112.488 227.781C111.246 231.856 89.7044 257.373 70.8713 255.236C64.7344 254.515 67.1196 220.849 67.1196 220.849L66.7221 218.365L61.256 183.009L103.916 159.48L110.078 156.4C110.078 156.4 110.923 166.164 111.867 178.338L112.016 180.078C112.016 180.773 112.165 181.419 112.19 182.065C112.364 183.879 112.513 185.742 112.637 187.581C112.637 188.997 112.836 190.364 112.885 191.854C112.935 193.345 113.035 194.786 113.109 196.277C113.618 206.78 113.41 217.306 112.488 227.781V227.781Z" fill="#EB9481"/>
<path d="M111.867 178.239C107.695 187.786 101.496 196.31 93.7008 203.222C85.9053 210.134 76.6995 215.267 66.7221 218.265L61.256 182.91L103.916 159.381L110.078 156.3C110.078 156.3 110.972 166.139 111.867 178.239Z" fill="#263238"/>
<path d="M17.5523 124.125C7.61404 186.239 43.7149 199.035 57.1068 201.147C69.2315 203.06 110.823 208.054 127.023 147.381C143.222 86.7073 117.507 62.5572 89.9777 56.6937C62.4486 50.8301 27.3912 62.1349 17.5523 124.125Z" fill="#EB9481"/>
<path d="M121.954 151.753C106.426 149.89 105.854 101.64 105.854 95.7015C105.68 99.4532 104.587 119.206 102.997 119.876C101.337 119.69 99.7173 119.237 98.2016 118.535V118.535C98.376 116.169 98.376 113.794 98.2016 111.429C98.2016 110.336 97.5805 113.764 96.6363 117.988C95.7667 117.665 94.8475 117.292 93.8288 116.945C94.4213 111.912 94.3377 106.824 93.5803 101.814C93.2822 99.9252 92.0896 108.273 89.7044 115.429C76.7306 110.45 63.2499 106.909 49.504 104.87C45.6529 104.397 42.2739 104.174 39.2924 104.074C39.7644 98.2357 40.9571 92.0988 40.4105 93.3908C38.9584 96.8106 37.8434 100.364 37.0811 104C35.4661 104 33.9754 104 32.6337 104C32.907 95.7511 37.901 82.9556 36.4351 84.8439C32.0178 90.7049 28.7471 97.3474 26.795 104.422C21.1053 105.043 19.3412 106.012 19.3412 104.547C19.3412 101.913 24.3104 79.179 43.7149 63.7747C64.7096 47.0783 103.941 45.687 123.495 75.7503C123.495 75.7503 140.539 89.018 141.806 108.224C143.073 127.429 130.849 152.797 121.954 151.753Z" fill="#80483A"/>
<path d="M43.4417 160.251C44.7655 162.945 46.7587 165.255 49.2307 166.959C50.616 167.838 52.2376 168.272 53.8769 168.201C57.4547 167.978 58.1752 164.897 58.0758 162.089C58.01 160.61 57.7766 159.143 57.3801 157.716C53.1254 160.033 48.2394 160.921 43.4417 160.251V160.251Z" fill="white"/>
<path d="M30.497 116.522C31.9629 116.522 33.3294 116.174 34.7953 116C36.3308 116.024 37.8317 115.544 39.0688 114.634C39.408 114.271 39.6166 113.805 39.6616 113.31C39.7066 112.815 39.5854 112.319 39.3172 111.901C38.6677 111.161 37.8326 110.607 36.8981 110.297C35.9636 109.987 34.9633 109.932 34.0003 110.137C31.9709 110.265 30.064 111.152 28.6584 112.621C28.4076 112.98 28.2559 113.399 28.2188 113.835C28.1816 114.271 28.2603 114.709 28.4469 115.105C28.6335 115.501 28.9214 115.84 29.2814 116.089C29.6414 116.338 30.0607 116.487 30.497 116.522Z" fill="#263238"/>
<path d="M70.7471 121.64C69.306 121.342 68.014 120.821 66.6227 120.398C65.096 120.145 63.6924 119.404 62.6225 118.286C62.3605 117.87 62.2428 117.38 62.2877 116.89C62.3327 116.4 62.5376 115.939 62.871 115.578C63.6384 114.961 64.5562 114.561 65.5301 114.416C66.5039 114.272 67.4985 114.39 68.4116 114.758C70.3845 115.226 72.112 116.414 73.2565 118.087C73.4502 118.487 73.5332 118.931 73.4969 119.374C73.4606 119.817 73.3063 120.242 73.05 120.604C72.7938 120.967 72.445 121.255 72.04 121.437C71.635 121.619 71.1885 121.689 70.7471 121.64Z" fill="#263238"/>
<path d="M61.0324 136.697C61.0324 136.548 61.3554 136.945 61.3306 137.119C60.7094 141.343 60.7342 146.287 64.4114 148.126C64.5356 148.126 64.4114 148.399 64.4114 148.374C59.7404 147.182 59.7901 140.598 61.0324 136.697Z" fill="#263238"/>
<path d="M65.3307 132.672C72.213 132.92 71.2191 146.685 64.8338 146.461C58.4484 146.238 59.5417 132.473 65.3307 132.672Z" fill="#263238"/>
<path d="M67.9892 133.517C69.1321 134.361 70.2005 135.827 71.6415 136.001C73.0826 136.175 74.6727 134.933 75.8653 133.641C75.8653 133.492 76.1138 133.641 76.0889 133.815C75.9399 136.448 74.7473 139.082 71.89 139.281C69.0327 139.48 67.5917 136.97 67.1196 134.312C67.0451 133.939 67.5171 133.268 67.9892 133.517Z" fill="#263238"/>
<path d="M37.3544 132.821C37.3544 132.672 37.0066 133.02 37.0066 133.194C37.0066 137.467 35.9879 142.337 32.0374 143.505C32.0374 143.505 32.0374 143.753 32.0374 143.728C36.8078 143.455 37.9259 136.896 37.3544 132.821Z" fill="#263238"/>
<path d="M33.9506 128.125C27.118 127.156 25.677 140.896 32.0126 141.79C38.3483 142.685 39.5657 128.945 33.9506 128.125Z" fill="#263238"/>
<path d="M30.8946 128.746C29.7268 129.343 28.41 130.56 27.2174 130.51C26.0248 130.461 24.7328 128.846 23.9377 127.33C23.9377 127.181 23.7141 127.33 23.6893 127.454C23.3663 130.063 23.9378 132.896 26.3975 133.666C28.8572 134.436 30.5716 132.274 31.3666 129.74C31.6399 129.268 31.3418 128.548 30.8946 128.746Z" fill="#263238"/>
<path d="M59.4672 169.245C58.4236 170.239 57.3801 171.58 55.8148 171.729C54.2231 171.645 52.6663 171.23 51.2432 170.512C51.2137 170.501 51.1815 170.5 51.1513 170.509C51.1212 170.518 51.0946 170.536 51.0753 170.561C51.056 170.586 51.045 170.616 51.044 170.647C51.0429 170.679 51.0517 170.709 51.0693 170.736C51.6482 171.598 52.4519 172.285 53.3936 172.723C54.3352 173.161 55.3787 173.333 56.4111 173.22C57.2901 173.021 58.09 172.565 58.7093 171.91C59.3287 171.256 59.7394 170.432 59.8895 169.543C59.9641 169.22 59.6411 169.121 59.4672 169.245Z" fill="#263238"/>
<path d="M42.9696 152.375C42.9696 152.375 41.5534 158.661 41.3049 161.642C41.3049 161.94 41.9758 162.139 42.9944 162.263C42.9944 162.263 42.9944 162.263 43.1187 162.263C45.6573 162.949 48.336 162.923 50.8606 162.187C53.3852 161.45 55.6582 160.033 57.4298 158.089C57.6534 157.816 57.4298 157.468 57.0074 157.642C52.963 159.943 48.2806 160.867 43.6653 160.275C43.5162 159.431 46.448 149.592 45.9759 149.517C43.6246 149.535 41.2857 149.86 39.0191 150.486C41.5037 137.293 46.2492 124.647 48.6096 111.478C48.6175 111.385 48.5944 111.292 48.5438 111.214C48.4932 111.135 48.418 111.076 48.33 111.044C48.2419 111.013 48.146 111.012 48.0573 111.041C47.9685 111.07 47.8918 111.128 47.8393 111.205C42.0254 124.15 38.7458 139.256 35.7395 152.797C35.342 154.511 41.7273 152.772 42.9696 152.375Z" fill="#263238"/>
<path d="M116.414 150.586C116.414 150.586 131.47 132.001 139.992 137.517C148.514 143.033 136.216 170.636 125.532 173.767C124.188 174.261 122.758 174.479 121.328 174.407C119.897 174.335 118.496 173.975 117.209 173.349C115.921 172.722 114.773 171.842 113.834 170.761C112.894 169.68 112.183 168.421 111.743 167.058L116.414 150.586Z" fill="#EB9481"/>
<path d="M136.265 145.343C136.292 145.355 136.314 145.374 136.33 145.398C136.346 145.422 136.355 145.451 136.355 145.48C136.355 145.509 136.346 145.537 136.33 145.561C136.314 145.586 136.292 145.605 136.265 145.616C128.812 148.101 124.414 154.561 121.358 161.394C123.718 158.909 126.774 157.567 130.203 160.4C130.256 160.429 130.294 160.479 130.311 160.537C130.327 160.595 130.32 160.658 130.29 160.71C130.26 160.763 130.211 160.802 130.153 160.818C130.094 160.834 130.032 160.827 129.979 160.797C128.71 160.266 127.305 160.15 125.966 160.467C124.626 160.784 123.422 161.517 122.526 162.561C121.05 164.261 119.767 166.12 118.699 168.102C118.302 168.723 117.159 168.301 117.457 167.58V167.406C118.053 158.089 126.203 145.567 136.265 145.343Z" fill="#263238"/>
<path d="M43.8888 240.353C44.8578 245.024 53.2556 259.783 67.5916 264.926C86.2259 271.659 121.085 250.515 138.725 238.515L139.048 238.266C135.673 234.617 132.027 231.229 128.141 228.129C120.855 232.648 112.908 236.001 104.587 238.067C97.9301 239.719 91.0969 240.553 84.2383 240.552C78.3403 240.557 72.459 239.924 66.6972 238.664C61.6427 237.627 56.7002 236.105 51.9389 234.117C49.1344 236.035 46.4463 238.117 43.8888 240.353V240.353Z" fill="#FB0747"/>
<path d="M66.6972 238.564C66.8711 246.813 67.8898 254.888 70.8713 255.211C83.0457 256.602 96.3382 246.44 104.587 237.968C97.9301 239.619 91.0969 240.454 84.2383 240.453C78.3403 240.458 72.459 239.825 66.6972 238.564V238.564Z" fill="#EB9481"/>
<path d="M84.2083 58.6947C81.9763 61.9518 77.3304 62.8188 73.7975 60.4647C70.2645 58.1106 69.3471 53.5366 71.5791 50.2795C73.8111 47.0224 78.457 46.1553 81.99 48.5094C85.5229 50.8635 86.4403 55.4375 84.2083 58.6947Z" stroke="#FDE565" stroke-width="3"/>
<path d="M88.9634 47.0116C97.0572 42.4574 113.651 34.4767 115.274 38.9877C117.303 44.6265 109.313 50.7746 109.669 53.8163C110.025 56.8581 112.947 61.6204 109.823 64.688C107.982 66.4948 104.042 69.5149 101.9 68.2261C100.187 67.195 90.6559 60.0463 86.1047 56.6008" stroke="#FDE565" stroke-width="3" stroke-linecap="round"/>
<path d="M56.9399 57.2525C47.9912 59.5058 43.8882 58.2593 43.5524 53.4376C43.1326 47.4105 52.4485 47.2878 52.9266 44.235C53.4048 41.1821 49.3126 33.8821 51.1996 32.1239C53.0867 30.3658 58.0143 28.9841 59.7115 30.8124C61.0694 32.2751 70.364 43.0466 73.7804 47.6189" stroke="#FDE565" stroke-width="3" stroke-linecap="round"/>
</svg>
